<?xml version="1.0" encoding="UTF-8"?>
<svg version="1.1" xmlns="http://www.w3.org/2000/svg" width="350" height="443">
<path d="M0 0 C0.99 0 1.98 0 3 0 C3.25652344 0.53625 3.51304688 1.0725 3.77734375 1.625 C6.47868599 7.15502048 9.39490613 12.52827514 12.4375 17.875 C15.58250562 23.41152031 18.55118607 28.99036093 21.359375 34.70703125 C27.70732562 47.44827499 34.57135162 59.92468446 41.453125 72.3828125 C49.80885433 87.51127637 49.80885433 87.51127637 53.1875 94.4375 C54.9069199 97.99591947 54.9069199 97.99591947 57.0625 101.0625 C59.16686317 104.2529861 60.49667071 107.49223166 62 111 C62.99 112.485 62.99 112.485 64 114 C65.72652077 116.58978116 66.88253682 119.01248466 68.0546875 121.875 C70.03705473 126.33123047 72.47752022 130.56412421 74.81933594 134.83886719 C76.19111458 137.34982347 77.55263285 139.86623042 78.9140625 142.3828125 C79.96336016 144.31780677 81.01284012 146.2527022 82.0625 148.1875 C82.5567749 149.10152588 83.0510498 150.01555176 83.56030273 150.95727539 C86.88574239 157.06923641 90.37355231 163.06180221 94 169 C94.91666667 167.5 95.83333333 166 96.75 164.5 C97.26046875 163.6646875 97.7709375 162.829375 98.296875 161.96875 C99.97052987 159.05136995 101.46358572 156.08898891 102.95117188 153.07470703 C104.6488625 149.71647264 106.51189942 146.45598441 108.375 143.1875 C109.17503761 141.77505575 109.97451612 140.36229467 110.7734375 138.94921875 C111.15725586 138.27036621 111.54107422 137.59151367 111.93652344 136.89208984 C113.31442217 134.44059416 114.66073172 131.97278305 116 129.5 C117.71464559 126.33413202 119.45459824 123.18482215 121.2265625 120.05078125 C121.62230469 119.35082031 122.01804688 118.65085937 122.42578125 117.9296875 C123.20002477 116.56278201 123.97594675 115.19682525 124.75390625 113.83203125 C126.92176443 110.00549155 128.94542161 106.13689172 130.89257812 102.1940918 C133.139499 97.74235505 135.54923468 93.37699562 137.9375 89 C138.44990234 88.05382812 138.96230469 87.10765625 139.49023438 86.1328125 C142.17116809 81.21379308 144.94929721 76.40663382 147.95678711 71.68066406 C149.22310158 69.64057306 150.28988323 67.54658002 151.3125 65.375 C154.8684815 58.10746282 159.00746387 51.16467137 163.06152344 44.16796875 C166.8212099 37.67111924 170.49174982 31.17175037 173.79296875 24.42578125 C177.02843379 17.92343889 180.60835324 11.59456217 184.25 5.3125 C184.72953125 4.48363281 185.2090625 3.65476562 185.703125 2.80078125 C186.13109375 2.20652344 186.5590625 1.61226563 187 1 C187.66 1 188.32 1 189 1 C189.21914063 1.55945313 189.43828125 2.11890625 189.6640625 2.6953125 C191.66551957 7.7559072 193.75912995 12.76282722 195.9375 17.75 C198.4545189 23.58519419 200.64024057 29.48026957 202.73828125 35.4765625 C204.68661615 40.91742343 206.86487288 46.2629383 209.03564453 51.61767578 C211.07579398 56.65761967 213.1002385 61.70385964 215.125 66.75 C215.54483154 67.7913208 215.96466309 68.8326416 216.3972168 69.90551758 C218.34016873 74.74696527 220.23603662 79.59416411 222 84.50390625 C224.14102342 90.46046667 226.50063874 96.3208149 228.875 102.1875 C231.69919639 109.20268852 234.50636124 116.21772978 237.125 123.3125 C239.68540008 130.2372184 242.42073542 137.08338439 245.18017578 143.9309082 C247.18414259 148.91769141 249.08570475 153.92298198 250.8828125 158.98828125 C252.79105006 164.13251607 254.87503567 169.20720771 256.92651367 174.2956543 C259.62042429 180.99805361 262.18263004 187.74016018 264.67578125 194.51953125 C265.96489864 198.05997044 265.96489864 198.05997044 267.73046875 201.57421875 C269.49406771 206.33322271 268.86127321 209.10351566 266.80078125 213.640625 C266.30964844 214.50171875 265.81851562 215.3628125 265.3125 216.25 C264.50425781 217.67892578 264.50425781 217.67892578 263.6796875 219.13671875 C262.12140248 221.79305112 260.53716047 224.4309342 258.9375 227.0625 C256.54141829 231.01262954 254.43494799 235.03126021 252.40625 239.1796875 C249.40919319 245.19045143 246.18088188 251.08493878 243 257 C242.65549805 257.64098633 242.31099609 258.28197266 241.95605469 258.94238281 C239.97368024 262.62986335 237.98818352 266.31564742 236 270 C231.92931929 268.64310643 231.04665873 266.02027693 229.125 262.4375 C228.41270718 261.14774701 227.69917266 259.85867896 226.984375 258.5703125 C226.64212891 257.94930664 226.29988281 257.32830078 225.94726562 256.68847656 C224.82309211 254.68466625 223.61936747 252.74369366 222.375 250.8125 C219.94539686 246.99455222 217.81381529 243.03746694 215.66796875 239.0546875 C213.82354347 235.67684073 211.91845017 232.33608006 210 229 C207.62004809 224.8578876 205.27379655 220.70158058 203 216.5 C199.09610692 209.2895308 195.05112495 202.14400187 190.86816406 195.09179688 C188 190.21314314 188 190.21314314 188 188 C185.37073338 189.31463331 185.1114234 190.53740368 183.875 193.1875 C181.54204573 197.99624247 178.97597813 202.62314246 176.30102539 207.24926758 C172.98615015 212.99274132 169.77599208 218.79204819 166.58911133 224.60742188 C164.22629757 228.89168177 161.73901766 233.06172355 159.12280273 237.19580078 C157.69065839 239.49707208 156.39681657 241.85687769 155.125 244.25 C152.40884696 249.29129176 149.54776099 254.23416251 146.6484375 259.171875 C144.84178901 262.27143307 143.09928701 265.40141571 141.3671875 268.54296875 C139.66369366 271.60439053 137.92741792 274.64669722 136.1875 277.6875 C135.84452881 278.2870752 135.50155762 278.88665039 135.14819336 279.50439453 C133.45421212 282.46403919 131.75748836 285.4220776 130.05859375 288.37890625 C126.32257314 294.89241289 122.63866869 301.43156611 119 308 C115.89778388 313.59634087 112.78663859 319.18696415 109.625 324.75 C109.01914063 325.81734375 108.41328125 326.8846875 107.7890625 327.984375 C106.57440784 330.03178417 105.30062051 332.04501878 103.9765625 334.0234375 C102.06216096 336.90639001 100.38557963 339.82687432 98.75 342.875 C98.22921875 343.84179688 97.7084375 344.80859375 97.171875 345.8046875 C96.78515625 346.52914063 96.3984375 347.25359375 96 348 C95.01 348 94.02 348 93 348 C91.60546875 346.19921875 91.60546875 346.19921875 90.1875 343.6875 C89.66285156 342.76839844 89.13820312 341.84929687 88.59765625 340.90234375 C86.59994916 337.27325727 84.60618192 333.64271909 82.640625 329.99609375 C80.76627854 326.57318009 78.82434059 323.1930362 76.875 319.8125 C74.82501087 316.25184264 72.79065188 312.70015235 71 309 C68.64761489 304.15141585 65.90213416 299.52335514 63.21484375 294.85546875 C58.35788764 286.41810591 53.57558187 277.93471207 48.9375 269.375 C46.35168093 264.60448614 43.66352387 259.89563352 40.96069336 255.19091797 C38.42935298 250.77571916 35.98462644 246.31941842 33.5625 241.84375 C31.74721256 238.53992687 29.87780113 235.26850347 28 232 C25.12200127 226.99055108 22.32219289 221.94515124 19.57421875 216.86328125 C17.060423 212.29104232 14.4433817 207.77878847 11.83203125 203.26171875 C10.12117486 200.21573776 8.54957833 197.13014823 7 194 C6.01612294 192.32376502 5.02137457 190.65365406 4 189 C-0.65805099 195.47582699 -4.50096205 202.35613843 -8.30810547 209.35107422 C-10.70483002 213.73918789 -13.21861842 218.00975454 -15.89477539 222.2331543 C-17.25109946 224.40141524 -18.48350108 226.61892631 -19.6875 228.875 C-25.51378603 239.6694369 -31.36051968 250.46774106 -37.75 260.94140625 C-39.56247545 263.92632676 -41.28176891 266.96005269 -43 270 C-43.99 270 -44.98 270 -46 270 C-46.40734375 269.15695312 -46.8146875 268.31390625 -47.234375 267.4453125 C-49.09063166 263.82314796 -51.13366023 260.34796784 -53.25 256.875 C-54.05789175 255.53942531 -54.86517692 254.20348352 -55.671875 252.8671875 C-56.06826172 252.21073242 -56.46464844 251.55427734 -56.87304688 250.87792969 C-58.44029055 248.26630959 -59.97199698 245.63473417 -61.5 243 C-64.13851213 238.46200345 -66.80687301 233.94321067 -69.5 229.4375 C-69.87761475 228.80118652 -70.25522949 228.16487305 -70.64428711 227.50927734 C-72.97754458 223.60492967 -75.47245654 219.86617389 -78.0625 216.125 C-80.56355001 212.15136914 -82.02654774 209.17535607 -81.62890625 204.4375 C-80.5179276 200.13159517 -78.56315291 196.25498997 -76.58984375 192.28515625 C-74.7067129 188.3939694 -73.29039497 184.43101742 -71.8671875 180.35546875 C-70.79790035 177.45105365 -69.38324358 174.76648716 -68 172 C-67.24693874 169.88011079 -66.5620549 167.74246804 -65.87109375 165.6015625 C-62.88730948 156.69035028 -59.19200329 148.0627487 -55.4609375 139.4453125 C-53.67138144 135.22502255 -52.03555275 130.95748636 -50.41015625 126.671875 C-48.66941158 122.13918803 -46.8693207 117.63167747 -45.0625 113.125 C-44.54586792 111.83589722 -44.54586792 111.83589722 -44.01879883 110.52075195 C-42.72542072 107.29570128 -41.43054307 104.07125531 -40.13476562 100.84716797 C-36.25738625 91.19831408 -32.46246147 81.52155118 -28.7890625 71.79296875 C-26.18667499 64.93890992 -23.38566022 58.2001309 -20.47265625 51.47265625 C-18.16767868 46.03731127 -16.08524054 40.52252414 -14 35 C-9.52249581 23.25738418 -4.98669643 11.53726808 0 0 Z " fill="#22245B" transform="translate(81,95)"/>
<path d="M0 0 C1.89105469 -0.05607422 1.89105469 -0.05607422 3.8203125 -0.11328125 C21.0326185 -0.27265445 33.95460514 7.30239193 45.9921875 18.99609375 C57.06950668 30.42396101 61.14352874 45.73674532 61.125 61.375 C60.75063069 65.78537818 60.04901856 70.04815858 59.125 74.375 C58.94066406 75.23867187 58.75632812 76.10234375 58.56640625 76.9921875 C55.48730534 88.96434385 47.93646849 100.33451332 38 107.6875 C37.05125 108.244375 36.1025 108.80125 35.125 109.375 C34.279375 110.014375 33.43375 110.65375 32.5625 111.3125 C20.03163226 119.59007059 3.71886396 122.12051869 -10.875 119.375 C-23.33122903 116.31291393 -34.18277524 111.03302751 -42.875 101.375 C-43.34292969 100.87613281 -43.81085938 100.37726563 -44.29296875 99.86328125 C-54.74209848 88.33969088 -60.33643589 73.45011507 -60.09375 57.796875 C-59.10123799 46.8083492 -56.48904482 33.72588787 -48.875 25.375 C-48.441875 24.59125 -48.00875 23.8075 -47.5625 23 C-37.05600442 6.65656243 -18.45521111 0.20139615 0 0 Z " fill="#22245B" transform="translate(173.875,-0.375)"/>
</svg>
